/* XPM */
static char *background1717544143[] = {
/* columns rows colors chars-per-pixel */
"64 64 5 1 ",
"  c #9BB94E",
". c #79A863",
"X c #BFBA5B",
"o c #679175",
"O c white",
/* pixels */
"             ......... ....      XXX                            ",
"           .................   XXXXXX          ...              ",
"          ..................XXXXXXXXXXXXX...  .....             ",
"        ......     ............XXXXXXXXX.......  ...      ...   ",
" ..   .......       ...   .......XXX.....  ...    ...    .....  ",
"....                ..                                  ........",
".......                                  ..     ....    ........",
"...                       oooooo   ooo ..... ........  ....   ..",
"           ooooo  ooo   XXXXooooo ooooo...................      ",
"          oooooooooooo XXXXXXXooooooXXoo..................      ",
"        oooXXXXoooXXooXXXXXXXXXooooXXXXooXX...  ..   ....       ",
"     ooooXXXXXXXXXXXXXXXXXXXXXXXooXXXXXXXXXX..        ..........",
"...XooXXXXXXXXXXXXXXXXXXXX...XXXXoXX  XXXXXXXX        ..........",
"XXXXXXXXXXXXX...XXXXXXXXX.....XXXXX    XXXXXXXXX      .....XXXXX",
"XXX      XX.......XX.............           XXX      ..XXXXXXXXX",
"               .....................                            ",
"                   ....................   ......                ",
"  XXXX                 .........................                ",
" XXXXXX            .......   ...............XXX.                ",
"XXXXXXXXXX    ...........     .......      XXXXX             XXX",
"XXX   XXXXX                   ....     XX  XXXXXX              X",
" X     XXXXX                         XXXXXXXXXXXX               ",
"                                    XXXXXXXX...XXXXXX           ",
"                                   .............XXXXXXXXXX...   ",
"..                                .....  .......................",
"...........                    ......     ......................",
".......                                      ...................",
".                                             ...    ...........",
"                     ooooo    ooooo      XXX  ..      .   ..    ",
"                   oooooooo  ooooooo    XXXXX ..                ",
"XXX               oooXXXoooooooXXXXoo  XXXXXXXX..             XX",
"XXX     ooooo  oooooXXXXXXooooXXXXXXXo XXXXXXXXX         XXXXXXX",
"XX     oooooooooooooXXXXXXXXoXXXXXXXXXXXXXXXXXXX      XXXXXXXXXX",
"   oo oooXXoooooXXoooXXXXXXXXXXXXXXXXXXXXXXXXXXXXX    XXXXXXXXXX",
"  ooooooXXXXoooXXXXXoXXXXXXXXXXXXXXXXXXXXXXXXXXXXX              ",
"  ooXXooXXXXXXXXXXXXXXXXXXXXXXXXX    XXXXX..XXXXXXXXX           ",
"oooXXXXXXXXXXXXXXXXXXXXX....XXXX      XXX....XXXXXXXXX        XX",
"XXXXXXXX   XXXXX    XXX......  X       ......XXXXXX         XXXX",
"XXXXXXX     XXX   ...........       .........             XXXXXX",
"XXXXX       XXX  ...........       ...........           XXX   X",
"XXX           X  ...............  ......  .....        XXXX     ",
"               ........................     .....               ",
"         ..........   .................                         ",
"            ......     ..   .......  ..                  ...    ",
"               ...     .      ....    ..                .....   ",
"         XX                                      ...   ......   ",
"        XXXX    XXXX                            .............   ",
"      XXXXXXXXXXXXXXXX        ....             .................",
".....XXXXXXXXXXXXXX....  ...........  ....    ..................",
"...     XXXXXXXXXX..............................................",
"         XXXXXX ...   .....................oooo.................",
"     XXXXXXXXX            ................oooooo        oooo... ",
"   XXXXXXXXXXX       .................ooo.ooooooooooo  ooooooo. ",
"  XXXXXXXXXXX          ..............oooooooooooooooooooXXXoooo ",
"XXX     XXXXX            ...........oooooXXXXooooXXXXooXXXXXoooo",
"X        XXXXX XX            .......oooXXXXXXXooXXXXXXXXXXXXXXXX",
"X          XXXXXXX           .....ooooXXXXXXXXoXXXXXXXXXXXXXXXXX",
"X XXX       XXX   X           XXXXXXoXXXXXXXXXXXXXXXXXXXXXXXXXXX",
"XXXXXX                       XX  XXXXXXXXXXXXXXXXXXXXXXXXXXXXXXX",
"XXXXXX   XX                  X    XXXXXXXX   XXXXX  XXXX  XXXXXX",
"XXXXXX  XXXXX                         XXX     XX      X    XXXXX",
"XXXXXXXXXXXXXXXXXXXXXX                 XX     X            XXXXX",
"   XXXXXXXXX                                  X            XXXXX",
"               ......                                           "
};
