/* XPM */
static char *oie_521050xlVK1LRX1717546274[] = {
/* columns rows colors chars-per-pixel */
"64 64 151 2 ",
"   c None",
".  c #080027",
"X  c #0D022E",
"o  c #12022E",
"O  c #1D032F",
"+  c #140631",
"@  c #1D0330",
"#  c #150934",
"$  c #1A0A33",
"%  c #1A0D39",
"&  c #1D113D",
"*  c #2A022F",
"=  c #220430",
"-  c #2C0531",
";  c #240A36",
":  c #250E3A",
">  c #330532",
",  c #3C0633",
"<  c #3D0931",
"1  c #25133A",
"2  c #2B153A",
"3  c #2F193D",
"4  c #32153A",
"5  c #341A3E",
"6  c #420634",
"7  c #4C0735",
"8  c #460A32",
"9  c #4C0A33",
"0  c #470E3B",
"q  c #4A0D38",
"w  c #530735",
"e  c #550836",
"r  c #5C0936",
"t  c #40123F",
"y  c #4A113E",
"u  c #54173E",
"i  c #57183F",
"p  c #630C35",
"a  c #690E35",
"s  c #660938",
"d  c #6A0A38",
"f  c #710F36",
"g  c #710A39",
"h  c #7D0B3B",
"j  c #731035",
"k  c #7C1236",
"l  c #211641",
"z  c #241944",
"x  c #261C48",
"c  c #281C48",
"v  c #321B43",
"b  c #391E40",
"n  c #311D49",
"m  c #2D234E",
"M  c #362343",
"N  c #3D2242",
"B  c #37204C",
"V  c #2F2550",
"C  c #302651",
"Z  c #342A55",
"A  c #372D58",
"S  c #392F5A",
"D  c #3C325D",
"F  c #3F3660",
"G  c #4C1340",
"H  c #442545",
"J  c #4C2142",
"K  c #442846",
"L  c #492847",
"P  c #472C49",
"I  c #4D2C49",
"U  c #572144",
"Y  c #542C4A",
"T  c #4E304B",
"R  c #54314C",
"E  c #59334E",
"W  c #563750",
"Q  c #5D3750",
"!  c #5C3D54",
"~  c #633A52",
"^  c #6A3E55",
"/  c #433B65",
"(  c #473E69",
")  c #674156",
"_  c #6E4056",
"`  c #6B4458",
"'  c #744559",
"]  c #744A5C",
"[  c #7D4B5E",
"{  c #4A426C",
"}  c #4E4670",
"|  c #544C76",
" . c #564E78",
".. c #5A527C",
"X. c #775663",
"o. c #7D5362",
"O. c #7F5965",
"+. c #830C3B",
"@. c #8A0D3C",
"#. c #920D3D",
"$. c #9C0E3E",
"%. c #841336",
"&. c #8D1437",
"*. c #831038",
"=. c #8A1139",
"-. c #911437",
";. c #95113B",
":. c #9A1539",
">. c #A10F3F",
",. c #A4113D",
"<. c #AC133D",
"1. c #AB1839",
"2. c #B3153D",
"3. c #BB173D",
"4. c #B4193A",
"5. c #BB193B",
"6. c #C51A3C",
"7. c #CC1C3C",
"8. c #D41E3C",
"9. c #D91F3C",
"0. c #824E5F",
"q. c #834F60",
"w. c #845161",
"e. c #8D5664",
"r. c #825A66",
"t. c #8D5A67",
"y. c #865D68",
"u. c #905765",
"i. c #925966",
"p. c #965D69",
"a. c #995F6A",
"s. c #91616B",
"d. c #9B626C",
"f. c #9E7074",
"g. c #A46B72",
"h. c #A57175",
"j. c #AC7276",
"k. c #625B85",
"l. c #665F89",
"z. c #67608A",
"x. c #69628C",
"c. c #6F6B94",
"v. c #736D97",
"b. c #7A759F",
"n. c #7C77A1",
"m. c #7E79A2",
"M. c #827DA7",
"N. c #8483AC",
"B. c #8985AF",
"V. c #8D8AB3",
"C. c #9491BA",
/* pixels */
"                                                      - < < < < < < < < -                                                       ",
"                                                    X -.9.9.8.8.8.8.8.9.-.X                                                     ",
"                                                    X q <.2.2.<.2.2.2.<.9 <                                                     ",
"                                                  + X f 6.6.6.6.6.6.6.6.j d s                                                   ",
"                                                e , X &.9.9.8.8.8.8.8.9.&.d <.j                                                 ",
"                                              6 #.6 X -.9.8.8.8.8.8.8.9.&.d 2.6.r                                               ",
"                                            , @.$.6 X &.9.8.8.8.8.8.8.9.&.d 2.8.5.8                                             ",
"                                          - h $.$.6 X &.9.8.8.8.8.8.8.9.&.s 2.8.9.1.>                                           ",
"                  z C V m V V m B m +     g $.$.;.6 . -.9.9.9.9.8.9.9.9.-.s 2.8.8.8.:.                                          ",
"                  k.C.C.C.C.C.C.C.M.l   s $.$.$.>.< X r 2.3.3.3.5.5.3.3.r d 2.8.8.8.8.%.                                        ",
"                  z.b./ / / / / k.M.& w #.$.$.$.$.6 X r 3.3.3.3.3.3.3.3.r , <.8.8.8.8.8.j                                       ",
"                  z.z.. X X . . D M.b #.$.$.$.$.$., X :.9.8.8.8.9.9.9.9.-.8 j 7.8.8.8.8.6.r                                     ",
"                  z.z.o X o X X F N.G $.$.$.$.$.s @ X &.9.8.8.8.8.8.8.9.=.d h %.8.8.8.8.8.5.8                                   ",
"                  z.z.X o X o . F N.G $.$.$.$.g s < X -.9.8.8.8.8.8.8.9.&.s 2.=.:.8.8.8.8.9.1.>                                 ",
"                  z.z.X X o X X F M.G $.$.$.h r $., X &.9.8.8.8.8.8.8.9.&.s 2.7.k 1.9.8.8.8.9.:.                                ",
"                  z.x.% % % % # ( N.G $.$.@.e #.$., X -.9.8.8.9.8.8.8.9.-.d 2.9.6.j 6.8.8.8.8.8.%.                              ",
"                  l.C.B.B.B.B.B.V.N.G $.@.e @.$.$., X f 6.6.6.6.6.6.6.6.f d 2.8.8.6.4.8.8.8.8.8.8.j                             ",
"                   .m.n.n.n.n.n.m.c.G $.r h $.$.$.6 X q <.2.2.2.2.2.2.<.9 7 <.8.8.8.6.5.8.8.8.8.8.7.i                           ",
"                  F ..............} 0 s g $.$.$.$.6 X -.9.9.8.8.8.8.8.9.-., k 8.8.8.8.6.5.8.8.8.8.9.5.9                         ",
"                  D  . . .| | |  .} ; s $.$.$.$.d @ X &.9.9.8.8.8.8.8.9.&.d d :.8.8.8.8.5.5.8.8.8.8.9.1.>                       ",
"                  # # + + # + + # # 7 $.$.$.$.+.r , X &.8.8.8.8.8.8.8.9.&.d <.k 1.8.8.8.8.k 1.8.8.8.8.9.-.                      ",
"                    % C V l c C z , #.$.$.$.@.e $., X &.9.8.8.8.8.8.8.9.&.s 2.7.j 5.8.8.8.6.k 5.8.8.8.8.9.%.                    ",
"                  6 : Z V & c Z z d $.$.$.#.e @.$.6 X -.9.8.8.8.8.8.8.9.&.s 2.9.5.j 7.8.8.8.5.j 6.9.8.8.8.7.j                   ",
"                6 +.v (  .c.A S ( d $.$.$.r h $.$., X %.8.7.8.7.8.7.7.8.%.d 2.8.8.*.a 8.8.8.9.1.k 7.8.8.8.8.6.r                 ",
"              , @.#.v ( } } Z Z D d $.$.s g $.$.$., X , ,.<.<.<.<.<.<.,.< e 2.8.3.s - j 9.8.8.9.:.:.8.8.8.8.8.5.q               ",
"            - h $.@.: m & S S / x d $.g s $.$.$.$.6 X ;.8.8.8.8.8.8.8.8.-.> *.8.>.3.1.p k 5.9.8.8.5.6.8.8.8.8.8.1.<             ",
"            g $.>.@.n | Z x.l.v./ d +.r $.$.$.$.h = X &.9.8.8.8.8.8.8.9.&.s d 1.>.6.8.8.&.a %.9.8.8.5.6.8.8.8.8.9.-.            ",
"          s $.$.$.@.: z % z z l % r e #.$.$.$.@.e > X &.9.8.7.8.8.8.8.8.&.s ,.f =.6.8.8.9.5.%.9 5.8.8.4.7.8.8.8.8.8.k           ",
"        6 $.$.$.$.h n  . .m ( l 6 e @.$.$.$.#.e @.6 X &.9.8.8.8.8.8.8.9.&.d 2.6.$.6.8.8.8.8.8.4.k 6.8.8.1.6.8.8.8.9.-.          ",
"        6 $.$.$.@.* & D D z c > e h $.$.$.$.r h $.6 X &.9.8.8.8.8.8.8.9.&.s <.8.>.=.,.9.8.8.8.9.&.&.9.8.1.k 8.8.8.9.-.          ",
"        6 $.$.#., X & D S 1 - w g >.$.$.$.s g $.$.6 X &.9.8.8.8.8.8.8.8.&.s 2.8.4.s - a 6.8.8.9.-.&.9.8.9.:.%.8.8.9.-.          ",
"        8 $.$.7 X X c  ./ ; w s $.$.$.$.d s $.$.$.6 X , ,.<.<.<.<.<.<.,.< s 2.8.8.<.r + > -.8.9.&.%.8.8.8.9.%.:.9.9.-.          ",
"        6 $.r o X X # & @ w r $.$.$.$.h e $.$.$.$., X *.7.7.7.7.7.7.7.8.%.- ;.8.8.8.,.7 # % 9 4.&.< 1.9.8.8.8.k 1.9.&.          ",
"        7 g + X X X l l 7 r #.$.$.$.@.e #.$.$.$.@.- X &.9.8.9.8.8.8.8.9.&.s s 5.8.8.6.$.u I 4 O a :.j 5.9.8.8.6.f 5.-.          ",
"        = = X o X + X 6 e @.$.$.$.#.e @.$.$.$.#.r - X &.9.9.9.9.8.8.8.8.&.d ;.j 6.8.8.6.@.U ' 4 -.9.5.j 6.8.8.8.5.j %.          ",
"        X o X X X X , w h $.$.$.$.r h $.$.$.$.r h 6 X g <.,.,.,.<.,.<.<.g s 2.1.k 8.8.8.5.+.Y J 6.8.9.1.k 8.8.8.9.4.<           ",
"      X X X X X X - e g $.$.$.$.s d $.$.$.$.s g $.6 X s $.$.$.$.#.$.#.$.d $ ;.8.:.%.8.8.8.2.g - 6.8.8.8.5.5.8.8.8.9.%.          ",
"    X o + X + X = w s $.$.$.$.g s $.$.$.$.g s $.$.6 X d $.$.$.$.>.$.>.>.d X 9 7.8.=.:.8.8.8.2.*.5.8.8.8.8.6.6.8.8.9.-.          ",
"    o X X X X + w r $.$.$.$.h r $.$.$.$.h r $.$.$., X s >.$.$.$.$.$.$.$.s X 6 <.8.8.k 1.9.8.8.8.5.6.8.8.8.8.3.6.9.9.-.          ",
"    o X + X + 7 e #.$.$.$.@.e #.$.$.$.#.e #.$.$.$.< X d $.$.$.$.$.$.>.>.d X 6 $.2.8.6.<.7.8.8.8.7.5.7.8.8.8.7.3.7.9.&.          ",
"    X X o + 6 e @.$.$.$.#.e @.$.$.$.#.e @.$.$.$.$., X e h h h h h h h h e X , $.$.3.9.7.3.7.8.8.8.7.4.8.8.8.9.7.<.7.&.          ",
"    o X X > e h $.$.$.#.r h $.$.$.#.r h $.$.$.$.$.6 X o o X o o X + X X X X 6 $.$.$.6.9.6.3.8.8.8.8.7.5.8.8.8.8.1.k &.          ",
"    X X - e g $.$.$.$.s g $.$.$.$.s g $.$.$.$.$.$.6 X X X o X X o X X o + X 6 :.$.$.$.6.9.6.6.8.8.8.8.4.-.8.8.8.9.:.8           ",
"    o X @ d $.$.$.$.g s $.$.$.$.d s $.$.$.$.$.$.d O X X o X X o X o X X X X @ d $.$.$.,.7.8.3.3.8.8.8.8.%.:.9.8.8.8.k           ",
"    o X , $.$.$.$.h r $.$.$.$.h G #.$.$.$.$.$.h @ X X X . X X X X . X X X X X = +.$.$.$.<.8.8.k 1.8.8.8.7.k 1.9.8.8.8.f         ",
"    X X 6 $.$.$.@.e #.$.$.$.@.e $.$.$.$.$.$.@.- X + 2 3 H N H H H H H H o 2 o X - @.$.$.$.2.8.6.j 5.8.8.8.6.j 5.9.8.8.7.r       ",
"        6 $.$.#.e @.$.$.$.#.e @.>.$.$.$.$.#., X X L ~ ~ i.i.i.i.i.i.i.w.# ~ L o X , #.$.$.$.3.8.5.j 6.8.8.8.5.j 6.8.8.9.-.      ",
"        6 $.$.e h $.$.$.$.r +.$.$.$.$.$.$.7 X X 5 e.~ ^ i.i.u.u.u.i.i.q.# ~ e.5 X X 7 $.$.$.$.6.9.1.%.8.8.8.9.1.k 7.8.9.&.      ",
"        6 $.s g $.$.$.$.s g $.$.$.$.$.$.r o X # 0.i.~ Y ' ' ' ' ' ' ' ^ @ ~ i.[ % X o r $.$.$.>.6.8.5.6.8.8.8.9.;.%.8.9.-.      ",
"        7 g s $.$.$.$.g s $.$.$.$.$.$.g @ X o # 0.i.~ X X o X X X X X o X ~ i.w.@ X o + d >.$.$.,.7.9.5.6.9.8.8.8.&.:.9.-.      ",
"        = r #.$.$.$.h r $.$.$.$.$.$.h @ X X X @ w.i.~ 6 s > r r > s 6 X X ~ i.0.5 2 X X = h $.$.$.<.7.8.5.6.8.8.8.7.k 1.-.      ",
"        , #.$.$.$.@.e #.$.$.$.$.$.@.- X X + + % 0.i.~ d >.w @.#.9 >.d 7 @ ~ i.d.3 1 + X X - @.$.$.$.2.8.8.2.7.9.8.8.-.h &.      ",
"      , @.$.$.$.#.e @.$.$.$.$.$.#.< X X O ^ Q $ w.a.r.d <.e @.@.9 >.d r O ~ i.t.H ' ~ + X X < #.$.$.$.3.9.7.<.6.8.9.-.e r       ",
"    > h $.$.$.$.e h $.$.$.$.$.$.9 X o + E p.~ $ 0.d.y.s ,.e @.@.w $.d r O ~ i.h.R ~ e.E o X X 9 $.$.$.>.6.9.1.k 8.9.-.X X       ",
"    6 $.$.$.$.s g $.$.$.$.$.$.r o X X o H H 5 # q.d.y.d 2.p @.:.w $.d r O ~ i.i.5 H H H O X X o r $.$.$.$.6.9.:.%.9.&.          ",
"    8 $.$.$.g s $.$.$.$.$.$.d + X X P w.o.w.H $ q.d.y.d >.e @.1.e >.d r O ~ i.0.N _ o.f.s.5 X o + d $.$.$.,.7.9.&.:.-.          ",
"    7 $.$.h e $.$.$.$.$.$.h = X X 2 w.a.p.e.4 # 0.a.y.d #., h @.7 ,.=.r @ ~ u.g.R i.a.d.d.0.2 X X O h $.$.$.<.8.8.k a           ",
"    6 $.@.r #.$.$.$.$.$.@.- X X X N E E E E H $ 0.d.y.d g M 9 $.w ,.&.r @ ~ i.h.N E R E R E N X X X - @.$.$.$.2.8.7.9           ",
"    6 #.e @.$.$.$.$.$.#., X M N R E E ] O.) N $ 0.a.` d g X.U $.q ,.=.r @ ~ i.h.N R ) ` o.o.E 2 2 2 X , #.$.$.$.5.8.-.          ",
"    6 7 , $.$.$.$.$.$.7 X % y.^ ~ ' a.d.g.d.~ $ 0.a.o.d g 1 q @.7 >.g r @ ~ i.g.T ~ t.d.g.g.] $ b ' % X 7 $.$.$.>.6.&.          ",
"    o o , $.$.$.$.$.r o + ^ a.P E _ _ _ _ ` Y $ 0.d.y.d $.6 +.@.7 ,.*.r @ ~ i.h.H ^ _ _ ^ ' ^ 2 b i.^ + + r $.$.$.<.%.          ",
"    X X 6 $.$.$.$.g + X R e.d.R b K ! R ! I 5 $ 0.a.[ d >.7 @.@.7 $.d r O ~ i.h.v H H E W H H $ b i.u.E X + g $.$.:.d           ",
"        6 $.$.$.h = X H e.u.t.L ^ [ j.d.j.a.5 $ 0.a.] s $.7 @.@.7 $.d r O ~ i.t.I ^ e.g.g.i.i.b b e.e.e.L X = h $.$.d           ",
"        @ - > > = X X ^ i.e.u.L ' 0.i.e.e.e.Y # 0.a.` = > @ - - = > = = o ~ i.[ H [ e.e.e.u.t.b b i.i.i.~ X X = > - =           "
};
