/* XPM */
static char *pu1717545004[] = {
/* columns rows colors chars-per-pixel */
"64 64 197 2 ",
"   c None",
".  c #11172B",
"X  c #151B2D",
"o  c #181E2F",
"O  c #171E31",
"+  c #1A1F31",
"@  c #0F162A",
"#  c #1C2233",
"$  c #1D253B",
"%  c #1C2B3D",
"&  c #162034",
"*  c #222534",
"=  c #262936",
"-  c #292B37",
";  c #20273E",
":  c #20283D",
">  c #2A2E39",
",  c #302F3A",
"<  c #2E303A",
"1  c #34333B",
"2  c #3A373F",
"3  c #3A393E",
"4  c #1E3244",
"5  c #232C44",
"6  c #262F49",
"7  c #213343",
"8  c #27314C",
"9  c #29324D",
"0  c #233B4B",
"q  c #273846",
"w  c #3E3A41",
"e  c #373A40",
"r  c #2C3652",
"t  c #233E51",
"y  c #2E3957",
"u  c #2F3A59",
"i  c #313D5D",
"p  c #343F60",
"a  c #423D43",
"s  c #244354",
"d  c #294859",
"f  c #2E525B",
"g  c #30565F",
"h  c #27414D",
"j  c #294E60",
"k  c #354163",
"l  c #39466A",
"z  c #3B496E",
"x  c #354B69",
"c  c #2C586A",
"v  c #325B62",
"b  c #3E4C73",
"n  c #3F5D7E",
"m  c #375873",
"M  c #376876",
"N  c #3E7578",
"B  c #37666C",
"V  c #474045",
"C  c #4A4346",
"Z  c #4F4649",
"A  c #43464D",
"S  c #534A4A",
"D  c #554A4C",
"F  c #59534D",
"G  c #5F5250",
"H  c #5A5B55",
"J  c #545657",
"K  c #645553",
"L  c #645A52",
"P  c #6B5B56",
"I  c #6F5D58",
"U  c #68655A",
"Y  c #76635B",
"T  c #79655D",
"R  c #7B6B5D",
"E  c #736759",
"W  c #404E76",
"Q  c #405177",
"!  c #40557A",
"~  c #40597C",
"^  c #417C7E",
"/  c #5D616C",
"(  c #767778",
")  c #797465",
"_  c #806F5C",
"`  c #84745F",
"'  c #846D62",
"]  c #8B7365",
"[  c #8C7A64",
"{  c #847866",
"}  c #917D65",
"|  c #927769",
" . c #977B6B",
".. c #997D6C",
"X. c #9D826C",
"o. c #968467",
"O. c #8A8876",
"+. c #928E76",
"@. c #A2866F",
"#. c #A58E6E",
"$. c #A7906E",
"%. c #A8916F",
"&. c #A48670",
"*. c #A78B71",
"=. c #AB9373",
"-. c #AA9774",
";. c #B29575",
":. c #B59976",
">. c #BB9C79",
",. c #B69A79",
"<. c #BEA27A",
"1. c #C3A47C",
"2. c #C6A87C",
"3. c #CBAB7F",
"4. c #3F6483",
"5. c #3E6D88",
"6. c #356E80",
"7. c #367284",
"8. c #3D758C",
"9. c #3B7A8D",
"0. c #3E7D92",
"q. c #406483",
"w. c #417B87",
"e. c #3E8295",
"r. c #3E8698",
"t. c #3F8899",
"y. c #46888A",
"u. c #428C9B",
"i. c #438891",
"p. c #4D9694",
"a. c #46929C",
"s. c #4B999D",
"d. c #519F9B",
"f. c #52A29E",
"g. c #4B9BA1",
"h. c #4997A0",
"j. c #52A5A6",
"k. c #54A9A7",
"l. c #58AFA9",
"z. c #57AEA9",
"x. c #5AB3AC",
"c. c #9D9A88",
"v. c #8D8E90",
"b. c #A19B85",
"n. c #AEA386",
"m. c #B4AC86",
"M. c #BFBB91",
"N. c #B9B58E",
"B. c #CEAE81",
"V. c #C7AD85",
"C. c #CAB78A",
"Z. c #D4B483",
"A. c #D7B886",
"S. c #DAB986",
"D. c #DABD8A",
"F. c #D5B786",
"G. c #C7BE98",
"H. c #DABE93",
"J. c #DCC18E",
"K. c #DEC591",
"L. c #D4CB9A",
"P. c #DDC994",
"I. c #E0C48F",
"U. c #E2CA96",
"Y. c #E3CE9A",
"T. c #E0C793",
"R. c #E5D29C",
"E. c #E8D59F",
"W. c #DDC9AA",
"Q. c #DED3A2",
"!. c #D6D0B7",
"~. c #E9D7A2",
"^. c #EBDBA4",
"/. c #ECDDAB",
"(. c #E4D0AE",
"). c #E8D8B8",
"_. c #E0C9A4",
"`. c #EFE1AA",
"'. c #F0E2AC",
"]. c #F2EAAE",
"[. c #ECE2B7",
"{. c #F1E4B3",
"}. c #F2E6BB",
"|. c #F3E8BE",
" X c #DAD7D0",
".X c #F3EAC4",
"XX c #F6EDCD",
"oX c #F2E7C4",
"OX c #F7F1D4",
"+X c #F8F2DB",
"@X c #EDE8DD",
"#X c #F9F4E4",
"$X c #FBF7E8",
"%X c #FDFAEB",
"&X c #FDFBF4",
"*X c #FFFEFD",
"=X c #FAF7F2",
/* pixels */
"                                                                                                                                ",
"                                                                                                                                ",
"                                                          X o # $ & o o X X                                                     ",
"                                                      X # h N y.N p.p.g 0 & o                                                   ",
"                                                    X o N x.z.f M x.x.x.l.v X X                                                 ",
"                                                    # M x.l.v % p.x.x.z.j.d.f X X                                               ",
"                                                  X v x.x.d.& g x.x.j.a.r.t.9.: + X                                             ",
"                                                  $ y.x.x.i.d f.x.x.h.r.6.0.i.x 9 X                                             ",
"        Z.Z.                                    X 4 g.x.l.u.a.x.x.x.u.t.j 6.t.4.r .                                             ",
"        F.F.                                    . 0 s.x.k.u.k.x.x.j.t.r.d s r.4.9 X                                             ",
"        b.).Z.                                  + w.x.x.j.u.x.x.l.a.r.r.7.4 7.9.$ X                                             ",
"        / *X).Z.                                X ^ x.x.l.h.l.x.x.j.u.r.9.$ 7.j X X                                             ",
"        H %X*XW.S                               X 0 k.x.x.j.x.x.x.z.u.t.M 4 8.s X                                               ",
"        H .X*X=X(                                 % e.z.x.x.x.x.x.g.t.r.t r 8.0 X                                               ",
"        H `.@X*X[.Z.                              X 0 e.h.g.g.g.h.r.0.d O b m X                                                 ",
"        H T.H.$XOXW.o.                            X X $ c 9.r.i.r.7.4 & p l 4 .                                                 ",
"        F P.P.W..X X%                               X X X 7 s t t % O p Q r X                                                   ",
"        O R J.3./.[.H                                   X X X X . 5 y b i # . X                                                 ",
"          < <.S.J.].O.X                               X * +.O.# 6 i l p A n.L = X                                               ",
"          X R Z.J.`.M.:                             X . < G.{.+.A : O.c.G.}.v.e X                                               ",
"          X 1 <.S.R.].U X                         X + 2 # (  X=X@X!..X%X%Xn.a G , X                                             ",
"            * ;.S.o.-.N.*                         X C | Y w J v.v.*X*X$X(.B.&...Y # X                                           ",
"            X L Z.-.{ ].H                         * T ..,.3.B.L.Q.'.{.'.I.F.1...T 2 X                                           ",
"              = <.m.E Q.m.*                     X , | ..3.F.R.'.`.`.'./.~.S.B.=...I X X X                                       ",
"              X E Z.` n.L.-                     X S ..;.Z.S./.XXOXOXOXXX/.D.Z.3...' - X o .                                     ",
"                1 <.o.R L.U X   o X           X * ] 3.Z.Z.I./.XX*X*X*X#X'.U.Z.B.&...Z = _ a X                                   ",
"                o ` Z.3 F %.= X f ^ q         . a ..=.B.Z.H./.{.OX*X&XoX'.^.D.Z.;..._ * R 2.S .                                 ",
"                X L 3.L < 2.F & y.f.% X       X 1 ] ..;.B.Z.A.U./.*X|.'.`.'.D.1... .] , X ` 2.C X X                             ",
"                  o R | = } %.= 0 0 M d     X # K | &.B.U.~././.oX*X%X+X'.`.D.3.2.:.] a X , ` 1.S * X                           ",
"                  X C ..a 3 [ V X B x.f .   X # ' ..>.Z.J.}.&X*X*X*X*XOX`./.D.Z.Z.1.G + o K K R #.Y 2 o .                       ",
"                  X * ' R o * q c t.s.s     X * '  .>.Z.D.`.}.+X$X$X#X}.`.`.D.Z.3.*. .a X Y  ._ @.1.2.} h , .                   ",
"                $ 0 5 2 a # 5 9.t.e.d X     X # ' ..>.F.I.'.`.`.'.`.'.`.'.'.U.Z.;. ...S X T .... .U F { L.-.-.) o               ",
"              X s d # 5 9 l M 8.c % O       X # ' ..;.Z.D.`.}.XXXX}./.'.~.K.S.B.;.*.T 2 X Y .. .| T a a < U C.m.X X             ",
"              X X X X l b l r 4 S Y - X     X o w ] 1.Z.A.~.XX*X*X.X/.T.S.D.D.Z.Z.B.] G * T .. . .....] K + L -.o X             ",
"                X 5 9 k r O 3 _ ;.X.D X X   X X a ..>.B.Z.R.{.%X*X*X+X^.Y./.U.Z.Z.;...D X Y .. . ... . . .V E :.o X             ",
"                O + % $ . 1 =.S.F.>.T o       + K ....&.>.Y.{.oX&X*X#X`.'.`.F.3.;...| a a |  . . . . . . .V U %.o X             ",
"                  o X X . E D.Z.B.*.C o       X a  . . ...V.T.~.oXXX|.'.`.R.,.Z.B...' + Z .. . . . . . ...I U $.o X             ",
"                        X S o.1. .C X o       o + G ....1.Z.Z.D.U.`.^.R.J.<.&.<.;.' 1 + K .. . . . . .....' T %.o o             ",
"                        X X X 3 = + # O         X + K  .=.B.Z.I.'.`.~.J.F.>.| .._ w O O a |  . ... . . ...| ..*.o o             ",
"                            X X X 6 p O o         O + P  .&.Z.D.R.I.S.^.C...' Z # O 9 9 X T .. . . . . . . .:.*.o X             ",
"                                X + $ X           O X # a T #.#.*.#.#.=.| D - . O p b z $ a .. . ..... ...K #.$.o X             ",
"                                  X X O         O + r # + o O . X o o o + O 5 y l W z r ; * T .. ...|  ...Z R $.o X             ",
"                                                O 8 b b p 6 6 6 5 5 > 5 6 p b W W W b y o X K .. . ... ...C C X.o X             ",
"                                              X O p ! 5.w.q.n W ! ~ ~ W W W W ! n ! b b ; X K ..| ....| ..C C ' o o             ",
"                                              X X p ! e.t.r.e.0.i.e.0.5.5.4.5.8.q.8.4.b 6 . K .... . ... .S K D X               ",
"                                                O u b 0.r.t.t.r.r.t.r.r.t.t.t.0.n q.W W 5 X S .... .| ..Y G G o                 ",
"                                                O $ b 4.r.e.r.r.r.t.r.r.r.r.r.5.n n W p 5 X + K ......T 1 C #                   ",
"                                                  O 9 l 0.t.r.r.r.e.r.r.r.r.r.0.n W p 5 .     * P ..R 2 = #                     ",
"                                                  X X $ m w.0.e.r.r.r.r.r.e.8.q.W W i X X     X * K 1 K 2 .                     ",
"                                                    X X 9 i q.5.5.5.5.5.5.q.W b b i $ X         X O + a +                       ",
"                                                    X o X o ; ; ; ; ; ; $ 5 : : $ + X             X O X                         ",
"                                                  X X X X X X       X X X . X X X X                                             ",
"                                                  X X o X                 X + X X                                               ",
"                                                    X O X                 X X X X                                               ",
"                                                    X X X X               X + X                                                 ",
"                                                  + X X X o               X X X X                                               ",
"                                                    X X o X               X X X X X                                             ",
"                                                                                                                                ",
"                                                                                                                                ",
"                                                                                                                                ",
"                                                                                                                                ",
"                                                                                                                                ",
"                                                                                                                                ",
"                                                                                                                                "
};
