/* XPM */
static char *player1717544144[] = {
/* columns rows colors chars-per-pixel */
"64 64 210 2 ",
"   c None",
".  c #11172A",
"X  c #151B2D",
"o  c #181D2F",
"O  c #171D31",
"+  c #191F31",
"@  c #0F1629",
"#  c #1B2233",
"$  c #1C263A",
"%  c #1C2C3D",
"&  c #162034",
"*  c #1D212F",
"=  c #222634",
"-  c #262936",
";  c #2A2B36",
":  c #20273E",
">  c #21293E",
",  c #2C2E39",
"<  c #2E323C",
"1  c #33343D",
"2  c #39383E",
"3  c #37383D",
"4  c #403C3E",
"5  c #1F3648",
"6  c #222B43",
"7  c #262F49",
"8  c #223344",
"9  c #23344A",
"0  c #29324D",
"q  c #263949",
"w  c #353741",
"e  c #2B3552",
"r  c #2B3954",
"t  c #283E55",
"y  c #333E5E",
"u  c #343F60",
"i  c #423D42",
"p  c #254255",
"a  c #2A4D5B",
"s  c #2A475A",
"d  c #364A55",
"f  c #2E4D63",
"g  c #354264",
"h  c #38486A",
"j  c #2E5B6D",
"k  c #2B5366",
"l  c #345A66",
"z  c #3E4D73",
"x  c #3D5B7B",
"c  c #365B74",
"v  c #346579",
"b  c #336A7C",
"n  c #366577",
"m  c #3A6B70",
"M  c #454144",
"N  c #4B4546",
"B  c #4C484A",
"V  c #51474A",
"C  c #534B4B",
"Z  c #594E4E",
"A  c #5D544D",
"S  c #5C5854",
"D  c #61584F",
"F  c #645552",
"G  c #645B52",
"H  c #695D54",
"J  c #6F5E59",
"K  c #6C6458",
"L  c #75635A",
"P  c #776859",
"I  c #414E76",
"U  c #415379",
"Y  c #40587C",
"T  c #575B69",
"R  c #54767A",
"E  c #6A6A63",
"W  c #7A6B65",
"Q  c #797767",
"!  c #646A72",
"~  c #83735E",
"^  c #826C61",
"/  c #867461",
"(  c #8B7365",
")  c #8D7A62",
"_  c #8B7F6B",
"`  c #917D65",
"'  c #95796A",
"]  c #997C6C",
"[  c #917769",
"{  c #9C826C",
"}  c #9C8A6C",
"|  c #95866B",
" . c #8C8771",
".. c #988A74",
"X. c #9D977B",
"o. c #A48E6D",
"O. c #A2856F",
"+. c #AA926F",
"@. c #A58A71",
"#. c #AC9472",
"$. c #A5997A",
"%. c #B59B75",
"&. c #BC9D79",
"*. c #B49776",
"=. c #BDA27A",
"-. c #B9A179",
";. c #ADA07C",
":. c #C3A57C",
">. c #CBAC7E",
",. c #3F5F80",
"<. c #3D6A85",
"1. c #3D6984",
"2. c #3F758D",
"3. c #3C7A8F",
"4. c #397584",
"5. c #3E7D92",
"6. c #415F81",
"7. c #406685",
"8. c #417C87",
"9. c #407A92",
"0. c #797C84",
"q. c #3D8295",
"w. c #3E8698",
"e. c #3F889A",
"r. c #45888C",
"t. c #428B9A",
"y. c #458896",
"u. c #46929D",
"i. c #4C9A9F",
"p. c #5A959A",
"a. c #558D95",
"s. c #759B95",
"d. c #689695",
"f. c #52A19D",
"g. c #4B9BA1",
"h. c #4797A0",
"j. c #4EA2A5",
"k. c #52A5A4",
"l. c #56ACA6",
"z. c #56ACA9",
"x. c #5AB3AD",
"c. c #75B6A9",
"v. c #899C8C",
"b. c #9E958C",
"n. c #A49F91",
"m. c #8BA08F",
"M. c #94A490",
"N. c #A7A48A",
"B. c #B8AA85",
"V. c #B9B48D",
"C. c #A6A399",
"Z. c #9FA1AA",
"A. c #A6A8AC",
"S. c #BBB5AC",
"D. c #CEAE80",
"F. c #C3AB83",
"G. c #CFB081",
"H. c #CAB588",
"J. c #D5B583",
"K. c #D7B986",
"L. c #DAB985",
"P. c #DABD8A",
"I. c #D6B987",
"U. c #D9BE93",
"Y. c #C6BBAC",
"T. c #93C3A9",
"R. c #DCC18E",
"E. c #C8C498",
"W. c #DDC592",
"Q. c #DAC999",
"!. c #DAD09D",
"~. c #E2CB95",
"^. c #E3CD9A",
"/. c #E0C592",
"(. c #E4D39D",
"). c #E9D59E",
"_. c #DFD8A3",
"`. c #D1C7AB",
"'. c #E0CCA6",
"]. c #E9D6A2",
"[. c #EBDCA5",
"{. c #EDDDA9",
"}. c #E5D8AA",
"|. c #E9D9B8",
" X c #DEE1AC",
".X c #EFE1AB",
"XX c #EDE3A9",
"oX c #F1E3AC",
"OX c #F1E5B4",
"+X c #F2E6BB",
"@X c #F5E9BD",
"#X c #EFE2B4",
"$X c #C7CACF",
"%X c #DCD6CF",
"&X c #CACDD4",
"*X c #D6D8DE",
"=X c #E5DAC8",
"-X c #F4EAC3",
";X c #F1E4CC",
":X c #F6EDCC",
">X c #F7EBC8",
",X c #F6EDD9",
"<X c #FAF4DB",
"1X c #F9F2D4",
"2X c #EFE8CF",
"3X c #E7E6E6",
"4X c #F9F5E9",
"5X c #FEFDF3",
"6X c #FEFEFD",
"7X c #EFF0ED",
/* pixels */
"                                                                                                                                ",
"                                                                                                                                ",
"                                        5 p p o X                                                                               ",
"                                  X X . 9 q.n % $ # X                                                                           ",
"                                O . O 5 j g.k.f.f.r.a q X                                                                       ",
"                              X O 6 j q.t.h.l.x.j.i.z.f.m a o                                                                   ",
"                            X X 6 c t.t.k.z.x.x.u.g.x.x.x.z.l o                                                                 ",
"                            X $ j 5.w.q.k.x.x.x.x.l.i.z.x.x.j.j q                                                               ",
"                          X $ r 3.q.w.w.h.x.x.x.x.x.g.u.x.x.l.r.% X                                                             ",
"                          X $ z <.q.w.4.a j l m l.x.x.l.r.f.x.x.a &                                                             ",
"                          X 9 Y 2.q.s $ X X X O q r.x.x.r.a i.x.u.p                                                             ",
"                          X 0 9.w.3.f e e e 6 . o % r.x.l.l a l.l.a X                                                           ",
"                          X 0 x 9.9.7.I U I h > o X % q.z.k.5 l z.n X                                                           ",
"                            o g 6.q.8.I I I I g o X . q h.z.s a y.f X                                                           ",
"                            X 6 h Y U I I I g % o o X > x t.f 1.9.h :                                                           ",
"                              X O 7 e 0 e 7 o o     X X j 4.0 k x 7 o                                                           ",
"                                X X X X X X X       O X j v 6 4.s X                                                             ",
"                                    X X o         O X X j g r 4.6 .                                                             ",
"                                            X ; 1 V o 7 g # # r ; 3 # .                                             J.          ",
"                                          . N #.*.^ 6 h 0 X & X b.|.C.T X                                         J.J.          ",
"                                        O . w S.=X%X&X*X&X$X$X$X3X4XY.d . X                                     J.U.J.          ",
"                                      o O M < $ F }.4X<X<X;X;X;X}.~.X.L D o X                                 J.U.,XE           ",
"                                      X + ^ ( o.B.}.oX{.oX).}.[.#X+XoX^.J.K X                               >.U.,X7Xw           ",
"                                    X X 2 ( ] D.~.{.{.+X:X:X4X6X6X6X<X}.~.#.,                             = B.,X6X=X1           ",
"                                    o o F ] *.J.J.[.oXOX-X-X-X1X5X7X3X,X{.~.D X                         ~ 1 %X6X5X}.1           ",
"                                    X 1 [ ' &.J.L.].oX{.oX{.{.oX>XC.w H.{.XX=.*                         %.N.5X6X2X_.w           ",
"                                    X , [ ] &.J.J.P./.{.oX.X.XoX:XC.o ~ /.+XE.- X                     #.W.-X5X=XW._.<           ",
"                                  X X i L @.J.J.J.J.W.]..X.X.X<X6XA.. i F.>X`.= X                     = `.1X4X'.R.W.1           ",
"                                  X o ^ ] @.J.J.J.J.J.L./.^.OX4X5XA.X X { ~.[...2                   O , *X1X(.K.^.Q #           ",
"                                  X + ^ ] *.J.J.J.J.L.>.L.[.oX@X1XC.X X L >.-Xn.o                   O Q :XXXK.L.;.#             ",
"                X # * X         o O O ^ ] >.J.J.J.K.K.J.L.XXoX@X5XA.X X ; %.Q._ X X               . w E.oXW.J.>.A .             ",
"                X 1 ) - .       X X o Z J O.&.>.J.{ | ` | $.$.N.A.7 X X O - ; $ X X               . Q OX(.J.L.+.-               ",
"                X = ~ +.A X       o o o i [ #.:.J.} C $ @ . X . X X o X X X X - # O             X - E.XXK.J.J.A .               ",
"                X X * ~ J.D X     X X , ' ' &.L.J.R.!.B.S B . . . . X X X , K `.B .             . Q _.E %.L.+.= X               ",
"                X p $ # ) >.D X X X X = L O.:.J.>.J.R.^.oX!.$.N.N.0.O X X H /.+XX.#           . 1 E.V.; %.J.A X                 ",
"                & b 3.a 8 ) >.H 1 X O O i ' O.] +.J.J.J.P.{.oX@X5X6XT . ; &.{.@XQ.=           o E XX .K K.#.-                   ",
"                X b t.e.4.l K O.( Z = X X C ` ] &.L.J.J.J.^.oX{.-X<X! . K Q.4X-XE.#         X = E.Q.C ~ >.K X                   ",
"                o b e.w.e.r.! ..&.J.=.F N # N J ) D.L.J.J.P.[.oX{.,X! @ } ).OX].} * o X     . K !...C >.+.- X                   ",
"                X b e.w.w.w.d.-.K G G F.H.} X.Q # P J.J.J.J.(.oXoX:XE i F.[.oX[.B X m m 8 X , #.;.1 ~ >.H X                     ",
"                X b e.e.u.u.m.>.%.A M w < X.!.B.X 2 :.L.J.J.(..X{.#X3X3X-XoXoX$.* * q.x.4.O A >.N ; :.-.; X                     ",
"                O b e.e.i.h.M.R.L.J.>.o.N . ~ +.X X M H +.J.).oX{.+X1X1X#X^.H.N $ 4.p a n # %.o.= Z D.H .                       ",
"                X b e.w.e.j.T.XX).P.L.>.:., | #.o o X . = C B.oXoX@X<X>X{.U.B O 8 l.r.% & K >.A ; ( ( - X                       ",
"                X b e.w.e.j.c. X[.W.>.R.>.3  .+.o X O X X X = E B.!.oXoX!.S e u 8 i.z.4.% 2 A o Z ] B X X                       ",
"                X R e.w.e.u.x.E.W.W.R.>.>.4 Q o.X 6 g 6 $ X X . ; w .. .w + g g 6 a w.w.b 5 O X F L ; # X                       ",
"                o | M.a.q.w.h.E.~.XX).>.>.~ ~ +.X 9 7.U I e e # X X O X O y 7.,.h X t v q.3.g 6 O X : g f q                     ",
"                o o.P.F.M.f.u.V.L.L.L.J.L.~ ` o.X 6 9.5.7.Y z h 0 + O + y 6.q.Y 9 X , , 5 v 7.I u 6 O e c p X                   ",
"                o o.I.J.!.XXT.V.J.L.J.J.>.O.&.o.X 6 7.e.w.5.7.U I g e u z 9.7.g + 1 ^ L B # 7 g I g # O X X                     ",
"                X ) J.I.].}. Xs.v.F.L.L.>.` &.o.X 8 7.q.w.w.w.5.7.I I I 2.5.h $ X V ] &.F.P o O 7 y g u $ X                     ",
"                X 2 >.J.R.(.oXc.h.p.v.F.G.C %.o.X 8 2.w.e.w.w.w.q.<.1.2.9.c % X X V O.J.J.J.~ 1 X O 0 6 X                       ",
"                . , -.J.P.R.(.c.x.j.h.p.v.w / o.o 6 U 1.5.w.w.e.w.w.w.y.n $ X o X i O.D.L.J.K.P . X X X o                       ",
"                  X K L.L.>.H.d.k.g.u.e.q.% G { X 6 I z I 7.<.7.<.7.1.f $ X X X X X C O.&.J.:.N X                               ",
"                  X ; } L.H.J.N.t.t.w.w.q.% A ^ o + : : % > 6 : 6 6 : X X X     X $ + 1 1 i 2 O X                               ",
"                    . , o.>.R.=.y.q.w.w.9.q L C X X X X X X X X X X X X         + z e O X X . X                                 ",
"                      X , o.L.K.s.w.w.w.k J Z O X O X O       X O X O X         + e u O                                         ",
"                        . , +.L.v.w.w.f 2 B O X X X X X       X O X X           X O O O                                         ",
"                          X < +.m.w.k = ; + X     o o X o     X X X X                                                           ",
"                            X 1 R j 2 H X X     O X X X X   X X X o X                                                           ",
"                              X $ # V i X     o X X o X o   O o X X X o                                                         ",
"                                X X # o                                                                                         ",
"                                  X X                                                                                           ",
"                                                                                                                                ",
"                                                                                                                                ",
"                                                                                                                                ",
"                                                                                                                                "
};
