/* XPM */
static char *pd1717545004[] = {
/* columns rows colors chars-per-pixel */
"64 64 208 2 ",
"   c None",
".  c #0F162A",
"X  c #11172B",
"o  c #151B2D",
"O  c #191E2F",
"+  c #171D31",
"@  c #191F32",
"#  c #1B2233",
"$  c #1D253A",
"%  c #1D2C3C",
"&  c #1F313F",
"*  c #222634",
"=  c #252936",
"-  c #292A37",
";  c #242A3C",
":  c #2D2D39",
">  c #202639",
",  c #2F313A",
"<  c #34343C",
"1  c #38373D",
"2  c #39383E",
"3  c #34383E",
"4  c #1E2E41",
"5  c #1E3244",
"6  c #1E3749",
"7  c #232D45",
"8  c #262E48",
"9  c #29324D",
"0  c #25364A",
"q  c #3C3B42",
"w  c #343844",
"e  c #2C3653",
"r  c #2A3A55",
"t  c #313C5C",
"y  c #343F60",
"u  c #433E43",
"i  c #3E4145",
"p  c #254354",
"a  c #294753",
"s  c #28495A",
"d  c #3F4556",
"f  c #354163",
"g  c #394669",
"h  c #354D6B",
"j  c #3C496E",
"k  c #384568",
"l  c #2B5465",
"z  c #2E5A6A",
"x  c #355667",
"c  c #3E4C71",
"v  c #2E5E71",
"b  c #3B5474",
"n  c #385776",
"m  c #35626A",
"M  c #396A76",
"N  c #3A737E",
"B  c #454144",
"V  c #4A4446",
"C  c #4C4C4D",
"Z  c #4A4648",
"A  c #534B4B",
"S  c #53494B",
"D  c #5B534C",
"F  c #57504B",
"G  c #464A58",
"H  c #545452",
"J  c #575A59",
"K  c #60574F",
"L  c #635552",
"P  c #655B52",
"I  c #6A5D54",
"U  c #605F5A",
"Y  c #725F59",
"T  c #5E645F",
"R  c #6B6458",
"E  c #7C6C5C",
"W  c #76655A",
"Q  c #595C66",
"!  c #404E76",
"~  c #405077",
"^  c #40557A",
"/  c #40597C",
"(  c #4F5462",
")  c #4C727B",
"_  c #666B68",
"`  c #786D61",
"'  c #787666",
"]  c #676D7A",
"[  c #82725E",
"{  c #846D62",
"}  c #857661",
"|  c #8B7962",
" . c #8A7867",
".. c #957B69",
"X. c #947B69",
"o. c #9B836B",
"O. c #998569",
"+. c #868670",
"@. c #878477",
"#. c #918C75",
"$. c #A38B6E",
"%. c #A2866F",
"&. c #A98C72",
"*. c #A58971",
"=. c #AD9471",
"-. c #A89777",
";. c #B29675",
":. c #BB9C79",
">. c #B59B77",
",. c #BDA178",
"<. c #C2A57B",
"1. c #C6AA7D",
"2. c #CAAC7E",
"3. c #3F6382",
"4. c #3D6B85",
"5. c #3F6E89",
"6. c #367184",
"7. c #3D758B",
"8. c #3A7A8B",
"9. c #3E7D92",
"0. c #405F80",
"q. c #406785",
"w. c #437D87",
"e. c #747883",
"r. c #3E8395",
"t. c #3E8698",
"y. c #3F889A",
"u. c #3D808E",
"i. c #458186",
"p. c #428D9B",
"a. c #478B96",
"s. c #46939E",
"d. c #4A969C",
"f. c #4C9898",
"g. c #528F93",
"h. c #699594",
"j. c #749993",
"k. c #51A09C",
"l. c #4A9AA1",
"z. c #4EA1A4",
"x. c #52A4A4",
"c. c #56ACA9",
"v. c #57ABA6",
"b. c #5AB3AC",
"n. c #5CB8B0",
"m. c #63ACA6",
"M. c #74B9AA",
"N. c #92908B",
"B. c #A59F86",
"V. c #9AA38B",
"C. c #98A891",
"Z. c #B8AA88",
"A. c #BDB58D",
"S. c #AEAB9B",
"D. c #BFB990",
"F. c #A7A68C",
"G. c #AFAFAD",
"H. c #CEAF80",
"J. c #C3AF86",
"K. c #CDB283",
"L. c #C6B68B",
"P. c #D5B583",
"I. c #D8B784",
"U. c #D7B986",
"Y. c #DAB985",
"T. c #D9BC89",
"R. c #D7B98A",
"E. c #C6BA91",
"W. c #A8CCAA",
"Q. c #DBC18D",
"!. c #DDC492",
"~. c #DBCE9C",
"^. c #DBC59A",
"/. c #D2C898",
"(. c #E1C995",
"). c #E2CA96",
"_. c #E5D39D",
"`. c #E9D49D",
"'. c #D4C7A9",
"]. c #C9D6AA",
"[. c #D1CDB1",
"{. c #E3CDA7",
"}. c #ECDBA5",
"|. c #E8D9A4",
" X c #E8DEB6",
".X c #EFE1AB",
"XX c #E9E1A8",
"oX c #F1E3AD",
"OX c #F2EBAF",
"+X c #EBE0B3",
"@X c #F1E4B3",
"#X c #F2E7BA",
"$X c #F4E8BB",
"%X c #D9D5C8",
"&X c #DEDCD9",
"*X c #E1DDD0",
"=X c #ECE2CB",
"-X c #F4EAC7",
";X c #F4ECD5",
":X c #FAF4DC",
">X c #F9F3D7",
",X c #E1E0D1",
"<X c #DEDFE0",
"1X c #F9F5E2",
"2X c #FAF6EA",
"3X c #FBF7E7",
"4X c #FDFDFC",
"5X c #FEFAF4",
/* pixels */
"                                                                                                                                ",
"                                                  o o o o o o o o                                   Y.                          ",
"                                              o # % l v v z & % % O o                               P.2.                        ",
"                                            o 4 6.9.t.y.y.s.f.x.f.a o o                           P.).+.                        ",
"                                          o 0 6.y.y.s.s.s.x.c.c.d.u.p o o                         I.;XN.+                       ",
"                                        o # 6.y.y.y.d.v.b.c.d.b.x.x.f.a # o                     P.(.5X%Xw                       ",
"                                        + e q.t.v 8.b.b.b.c.s.z.n.b.b.g.M o                     ..{.4X:X+.o                     ",
"                                      o + b 9.8.% & k.b.b.b.c.s.c.b.b.n.i.o                     < &X4X1XD.+                     ",
"                                      o # n y.z o o m b.b.b.b.y.x.b.b.b.M o                   O.Z &X5X{.~.J X                   ",
"                                      o e ^ 7.4.0 o a b.b.b.v.N x.n.b.a.& o                   2.K.-X2XU.Q.R .                   ",
"                                      o 7 ! q.9./ 8 a c.b.b.v.a f.n.b.m O O                   V Z.>X-XY.Y.I .                   ",
"                                      o + t ~ q.~ 9 6 z.b.b.x.; u.n.x.s o                     o d ,X.XQ.2.I o                   ",
"                                        X 7 ! ~ ~ 9 0 x.c.b.d.p i.v.u.& o                     o J +XXXR.U.I X                   ",
"                                        o O 9 t e @ 5 8.c.b.M l f.v.z o                       X +.OX_.U.U.I X                   ",
"                                          O o o o o o z c.c.x x b.N # o                       X +.OX!.P.Y.I o                   ",
"                                              o o o o % a.w.e x k.6 X O                       o +.OX-.2.P.D .                   ",
"                                              o # * F q c n 9 r ) R A @ +                     . +.OX' ,.=.* o                   ",
"                                            o o D O.Q.'.S.Q C ] F.`.1.u o o                   . +.OX' -.=.O o                   ",
"                                          o O * # 2 N.5X4X1X1X1X1X1X .w B + o                 o +.OXU P =.# o                   ",
"                                          o q X.E 2 q  .N.%X=X=X2X=X'.<.&.S +                 X +.|.} W =.# o                   ",
"                                          # W :.Y.<.,.D.D.{.E.~.+X(.P.:.%.L - o               o ' ,., R =.O o                   ",
"                                        o 1 ..1.P.P.!.$X1X@.Z %X-X|.Y.P.<.&.S +               X ' $.. I =.O O                   ",
"                                        + S ..:.H.Q.+X2X4XG # <X5XoX).Y.I.H.E # o       o # # . E O.o V E O o                   ",
"                                      o : X.<.Y.U.!..X#X#XC @ '.#X.X|.).P.P.;.u o       o m y.p [ $.o A E O o o o               ",
"                                      o S ;.P.P.R.`.}.@X%XG # [.#X}.|.!.T.).<.W o     O # p a 5 R } o B I + e x 0 O             ",
"                                    o O u *.:.P.T..X$X1XG.o o _ >X;X@X}.T.Y.P.X., o   X a f.z s $ $ # # # + 7 9 # O             ",
"                                    o - ` %.<.P._.oX2X4Xe.o o G ,X$XoX}.R.P.2.E < o     0 f.l.r.8.8.n j j j t 7 $ o             ",
"                                    o : X.H.1.A C H Q ( # o + o B H H H V &.H.I * O     o % l 6.6.6.n k g g k f $ o             ",
"            o + # o                 o - X.H.H.P * . X o o o o o X o X O B >.&...u o       o + @ * - ; - # o O + o               ",
"            o * [ < o               o : X.2.I.T.A.R # o o o o o O @ Q S.^.2.;.&.u o         o V } %.,.,.O.1 o                   ",
"            o o K =.E #             o - W :.H.(.@X@X'.B.* o o o  .A. X-X|.H.;.W q O         o L o.H.Y.I.Y.R o                   ",
"            o # o D 1.[ # o         o o q X.:.(.}.-X;X Xw o o # G.3X-X.X_.P.H.o.L +         o : X.>.P.2.=.3 o                   ",
"            o s l $ S <.| = o       o # I &.P.Q._.|.@X>XN.X o J :X:X#X.X(.P.P.%.u o         o + u L I S * o                     ",
"            o l y.8.l J $.O.A * o   o o L &.!.Q.).}.oX@XS.$ o ' oXoXoX}.Y.P.P.| * o           o o $ @ o o                       ",
"            X l y.y.t.w.R o.,.=.W , * o :  .K.I.`.oX}.#X1XQ w *X:XoXoX_.P.P.:.S o               + f t o                         ",
"            o l y.t.r.t.j.-.[ E O.L.$.' ` , P K.!.}.}.-X:X[.G.>X>XoX}.Q.P.| - o o               + @ @ o                         ",
"            o l y.y.s.y.V.1.O.C B i R D._.q o D K.}.oX$X3X2X:X@X.XoX|.P.[ # o o                   o o                           ",
"            o l y.y.l.l.C.Q.Q.P.<.[ , 3 2.1 o . D J..XoX+X}.oXoXoX{.J.E # # # o                                                 ",
"            o l y.r.y.z.W.XX_.Y.Y.U.[ i E.1 + 9 # ; ' E.}..XoXoX~.R * @ 9 g t # O                                               ",
"            o l y.t.t.z.M.|._.Q.P.Y.| 1 H.w @ c k # o - ` {..X#., o + t ! b c 8 o                                               ",
"            o T h.a.t.p.v./.).`.U.I.=.S <.1 # j ! j e @ + C H # @ 9 f b 0.c ! y + o                                             ",
"            o E I.F.h.p.a./.!.).U.I.:.K <.2 # j ! ! ! j 8 X . 7 k c ^ 9.t.5.0.j 4 X                                             ",
"            X E Y.Y./.].M.J.I.2.I.P.,...2.3 + j ! ! 5.0.c 9 8 y ^ q.r.t.y.y.w.q.t + +                                           ",
"            o I 2.P._.XX].j.V.K.I.I.>.o.H.3 # c 0.b 9.9.3.0.0.0.9.t.t.t.y.y.y.r.b # +                                           ",
"            o - >.U.Q._.XXm.l.g.C.P.X.W H.3 # b w.3.5.t.t.t.r.r.t.r.t.t.t.t.t.7.t + o                                           ",
"              O O.P.U.Q.~.m.b.s.l.g._ 2 :.3 @ j ^ q.0.t.t.t.t.t.t.t.t.t.t.t.9.b 4 o o O                                         ",
"              o B 2.I.P.K.h.z.l.p.t.v : %.3 @ c ~ 0.n 9.t.t.t.t.t.t.t.t.t.9.4.4 o O o o o                                       ",
"                o A H.P.U.V.t.t.t.y.v < { - + 9 c ~ q.r.t.t.t.t.t.t.t.t.p.3.4 o o o o o +                                       ",
"                  o S <.Y.Z.g.r.t.r.x Y u O o $ g ! ~ / q.t.t.p.r.p.7.5.z 7 o O   o o o                                         ",
"                    o V ,.Y.h.y.r.s V u o   O o $ e f f f h h h h h t > o o o       + o + o                                     ",
"                      o B ,.h.u.p * : o       o o o o + o O o O o + o o o           o O o                                       ",
"                        X B ) p S u o             O o o + o o o o o                                                             ",
"                          o % O S -                 o o + o                                                                     ",
"                            o o o                   O o O o                                                                     ",
"                                                      o o +                                                                     ",
"                                                      o o o o                                                                   ",
"                                                    o o o o o                                                                   ",
"                                                    O o + O                                                                     ",
"                                                                                                                                ",
"                                                                                                                                ",
"                                                                                                                                ",
"                                                                                                                                ",
"                                                                                                                                ",
"                                                                                                                                "
};
