/* XPM */
static char *player_left1717544620[] = {
/* columns rows colors chars-per-pixel */
"64 64 210 2 ",
"   c None",
".  c #11172A",
"X  c #151B2D",
"o  c #181D2F",
"O  c #171D31",
"+  c #191F31",
"@  c #0F1629",
"#  c #1B2233",
"$  c #1C263A",
"%  c #1C2C3D",
"&  c #162034",
"*  c #1D212F",
"=  c #222634",
"-  c #262936",
";  c #2A2B36",
":  c #20273E",
">  c #21293E",
",  c #2C2E39",
"<  c #2E323C",
"1  c #33343D",
"2  c #39383E",
"3  c #37383D",
"4  c #403C3E",
"5  c #1F3648",
"6  c #222B43",
"7  c #262F49",
"8  c #223344",
"9  c #23344A",
"0  c #29324D",
"q  c #263949",
"w  c #353741",
"e  c #2B3552",
"r  c #2B3954",
"t  c #283E55",
"y  c #333E5E",
"u  c #343F60",
"i  c #423D42",
"p  c #254255",
"a  c #2A4D5B",
"s  c #2A475A",
"d  c #364A55",
"f  c #2E4D63",
"g  c #354264",
"h  c #38486A",
"j  c #2E5B6D",
"k  c #2B5366",
"l  c #345A66",
"z  c #3E4D73",
"x  c #3D5B7B",
"c  c #365B74",
"v  c #346579",
"b  c #336A7C",
"n  c #366577",
"m  c #3A6B70",
"M  c #454144",
"N  c #4B4546",
"B  c #4C484A",
"V  c #51474A",
"C  c #534B4B",
"Z  c #594E4E",
"A  c #5D544D",
"S  c #5C5854",
"D  c #61584F",
"F  c #645552",
"G  c #645B52",
"H  c #695D54",
"J  c #6F5E59",
"K  c #6C6458",
"L  c #75635A",
"P  c #776859",
"I  c #414E76",
"U  c #415379",
"Y  c #40587C",
"T  c #575B69",
"R  c #54767A",
"E  c #6A6A63",
"W  c #7A6B65",
"Q  c #797767",
"!  c #646A72",
"~  c #83735E",
"^  c #826C61",
"/  c #867461",
"(  c #8B7365",
")  c #8D7A62",
"_  c #8B7F6B",
"`  c #917D65",
"'  c #95796A",
"]  c #997C6C",
"[  c #917769",
"{  c #9C826C",
"}  c #9C8A6C",
"|  c #95866B",
" . c #8C8771",
".. c #988A74",
"X. c #9D977B",
"o. c #A48E6D",
"O. c #A2856F",
"+. c #AA926F",
"@. c #A58A71",
"#. c #AC9472",
"$. c #A5997A",
"%. c #B59B75",
"&. c #BC9D79",
"*. c #B49776",
"=. c #BDA27A",
"-. c #B9A179",
";. c #ADA07C",
":. c #C3A57C",
">. c #CBAC7E",
",. c #3F5F80",
"<. c #3D6A85",
"1. c #3D6984",
"2. c #3F758D",
"3. c #3C7A8F",
"4. c #397584",
"5. c #3E7D92",
"6. c #415F81",
"7. c #406685",
"8. c #417C87",
"9. c #407A92",
"0. c #797C84",
"q. c #3D8295",
"w. c #3E8698",
"e. c #3F889A",
"r. c #45888C",
"t. c #428B9A",
"y. c #458896",
"u. c #46929D",
"i. c #4C9A9F",
"p. c #5A959A",
"a. c #558D95",
"s. c #759B95",
"d. c #689695",
"f. c #52A19D",
"g. c #4B9BA1",
"h. c #4797A0",
"j. c #4EA2A5",
"k. c #52A5A4",
"l. c #56ACA6",
"z. c #56ACA9",
"x. c #5AB3AD",
"c. c #75B6A9",
"v. c #899C8C",
"b. c #9E958C",
"n. c #A49F91",
"m. c #8BA08F",
"M. c #94A490",
"N. c #A7A48A",
"B. c #B8AA85",
"V. c #B9B48D",
"C. c #A6A399",
"Z. c #9FA1AA",
"A. c #A6A8AC",
"S. c #BBB5AC",
"D. c #CEAE80",
"F. c #C3AB83",
"G. c #CFB081",
"H. c #CAB588",
"J. c #D5B583",
"K. c #D7B986",
"L. c #DAB985",
"P. c #DABD8A",
"I. c #D6B987",
"U. c #D9BE93",
"Y. c #C6BBAC",
"T. c #93C3A9",
"R. c #DCC18E",
"E. c #C8C498",
"W. c #DDC592",
"Q. c #DAC999",
"!. c #DAD09D",
"~. c #E2CB95",
"^. c #E3CD9A",
"/. c #E0C592",
"(. c #E4D39D",
"). c #E9D59E",
"_. c #DFD8A3",
"`. c #D1C7AB",
"'. c #E0CCA6",
"]. c #E9D6A2",
"[. c #EBDCA5",
"{. c #EDDDA9",
"}. c #E5D8AA",
"|. c #E9D9B8",
" X c #DEE1AC",
".X c #EFE1AB",
"XX c #EDE3A9",
"oX c #F1E3AC",
"OX c #F1E5B4",
"+X c #F2E6BB",
"@X c #F5E9BD",
"#X c #EFE2B4",
"$X c #C7CACF",
"%X c #DCD6CF",
"&X c #CACDD4",
"*X c #D6D8DE",
"=X c #E5DAC8",
"-X c #F4EAC3",
";X c #F1E4CC",
":X c #F6EDCC",
">X c #F7EBC8",
",X c #F6EDD9",
"<X c #FAF4DB",
"1X c #F9F2D4",
"2X c #EFE8CF",
"3X c #E7E6E6",
"4X c #F9F5E9",
"5X c #FEFDF3",
"6X c #FEFEFD",
"7X c #EFF0ED",
/* pixels */
"                                                                                                                                ",
"                                                                                                                                ",
"                                                                              X & p p 5                                         ",
"                                                                          X # $ % v q.5 X X X                                   ",
"                                                                      X q a r.f.f.k.i.j 5 X X X                                 ",
"                                                                  O a m f.z.i.k.x.k.i.e.q.j 6 O X                               ",
"                                                                O l l.x.x.x.i.u.z.x.z.k.e.e.x 6 X X                             ",
"                                                              9 j j.x.x.z.g.l.x.x.x.x.j.w.w.5.j % X                             ",
"                                                            o > r.z.x.x.i.g.x.x.x.x.x.j.w.w.q.3.r # X                           ",
"                                                            o a x.x.f.4.k.x.x.l.m l l k 4.w.q.<.z : X                           ",
"                                                            p u.x.f.a r.x.x.r.8 * . . . $ a q.2.x 0 X                           ",
"                                                          X s z.l.a l x.x.a.> X X > t t e s 3.e.5.e X                           ",
"                                                          X n z.l q k.x.8.% X O > h I I U 7.9.9.x 7 X                           ",
"                                                          O f y.a a z.h.q X X X u U I I I 9.5.7.g O                             ",
"                                                          $ h 5.b f t.n 6 X X X : g z I I U U h 6 X                             ",
"                                                          O 7 x l 0 <.j X O     o o 7 e 0 e 7 O X                               ",
"                                                            X s 4.6 v c X O       X X X X X X o                                 ",
"                                                            . 6 1.r s j X O O         X o X                                     ",
"          J.                                            . + 2 , 9 & + h 6 O C w ; X                                             ",
"          J.J.                                        X T C.|.b.O # + 0 h 6 W *.#.N X                                           ",
"          G.U.J.                                    o . i Y.4X3X$X$X$X&X*X&X%X=XS.w X X                                         ",
"          W 2XU.J.                                o # D E X.~.}.;X;X;X<X<X<X'.G # , i O o                                       ",
"          q 7X,XP.>.                              X J J.^.oX+XOX}.].).{.oX.X}.V.@.( ^ # X                                       ",
"          w =X6X<XB.=                             , +./.}.4X6X6X6X5X:X:XOXoX[.~.D.] ( 2 X o                                     ",
"          3  X5X6X%X8 )                         X S ^.oX,X3X7X5X1X-X-X-XOX{.[.J.J.*.] F + X                                     ",
"          1 _.;X6X5XN.%.                        # =.oX[.H.3 C.>XoX{.{.oXoX.X[.P.J.&.' [ 1 X                                     ",
"          3 !.R.;X5X@XU.#.                    X - E.OX/.~ X C.:XoX.X.X.X{./.P.J.J.&.] ( , X                                     ",
"          3 Q.R.'.4X<XY.-                     X = `.;XF.4 X A.6X,XoX{.oX].W.J.J.J.J.@.L i X O                                   ",
"          = Q ~.J.^.1X*X< X                   2 { }.~.| X X A.5X4XoX(.R.K.J.J.J.J.J.@.] ^ # o                                   ",
"            * ;.P.J.[.1XQ .                   o C.-XJ.L X X C.1X@X.X[.L.J.J.J.J.J.J.*.] ^ O X                                   ",
"            X C J.J.W.oXE.3 .               X X  .W.%.; X X Z.5X@XoX.XL.L.L.L.J.L.L.>.] ^ o X X         X # O X                 ",
"              - @.L.J.(.OXQ X               X X # ; - O X X w Z.N.N.$.` | ` | J.:.&.O.H Z o o X       X = ) 3 X                 ",
"              X G >.>.L.XXE.% X             + # - X X X X X X X . X . . # C } G.:.#.[ i + O X       X F +.~ # X                 ",
"              X = +.R.%.E _.Q X             X B `.K , X X X . X X . B S B._.R.J.L.&.' ' 1 X O     X D >./ + X +                 ",
"                o D >.:.- V.E.1 X           # X.+XR.H X X * 0.n.$.$.Q.XX^.R.J.G.J.:.O.L * X O . X D >.` & % p O                 ",
"                  - %.>.K  .XXK X           # Q.@X{.-.- X T 6X5X-XoX{.U.J.J.J.@.] { ' M . O . 1 K >.) 8 a 3.b X                 ",
"                  X H L.W C Q.E.= X         = E.-X4XW.L @ ! 4X@XXXoX^.J.J.J.L.&.' ' B X X - Z ~ O.H l 4.w.w.b O                 ",
"                  X = #.>.C ..!.K .     X X # } [.+X).| @ ! ,X[.oX[.R.J.J.L.J.) K M # N D :.>.:...E y.w.w.t.b X                 ",
"                    X G J.) 1 *.#.; X 8 R j . C }.oX.X:.M ! >XoXoX^.J.J.J.L.P o Q X.} H.H.G D K -.d.w.q.w.t.1.O                 ",
"                    X ; %.&.- B J.A X 4.x.4.$ O $.oXoX@X3X2XOX.XoX(.J.J.L.:.2 X B.!.X.3 3 M A %.J.v.t.i.w.w.b O                 ",
"                      X H >.Z = o.#.# b a p m % B H.^.OX,X1X+X.XoX).J.o.H M X X +./ X N | >.J.P.L.m.u.j.e.e.b X                 ",
"                      X - / [ - A >.K & % q.l.< O V U.{.:X<X+X.X{.B.Z - . X X X #. .< =.L.J.K.).XXT.j.e.e.e.b X                 ",
"                      X X V ] S * A 2 % b x.g.5 u 0 S !..X#X!.B.K = X X X o X o o.| 1 >.J.L.W.[. Xc.g.e.w.e.b X                 ",
"                      X + ; L F + O 5 b e.t.a % u h O 1  ...2 ; X X X $ 7 g > X o.~ M >.J.P.W.W.E.x.u.w.w.e.R X                 ",
"                    9 f u 6 X O 6 g 5.w.b p X h 7.1.y O X O . X & e y z I <.9 X o.~ P L.J.~.{.~.E.j.e.w.a.M.} +                 ",
"                  X p c e # $ u z <.v 9 , - X 7 Y q.6.y + X # 0 h z Y 7.5.2.6 X o.| / J.J.J.I.P.V.g.p.M.F.L.o.X                 ",
"                    O O O + u I u 7 + V P ( 1 & g 7.2.I u e h I U <.5.w.w.7.6 X o.&.O.J.J.J.J.J.V.T. X!.J.L.o.+                 ",
"                    O # u g y 7 O O P D.*.] N X $ h 5.2.U I I 7.5.w.w.w.q.7.9 X } =.[ >.L.L.F.v.d. XXX).K.L.) X                 ",
"                      X 6 0 O X 1 ~ J.L.J.O.V X X % c 9.2.1.<.q.w.w.w.w.e.2.0 X o.%.C :.F.m.p.h.c.XX!.R.J.>.2 X                 ",
"                      X X X X X P L.J.J.D.{ i X X X : n t.e.w.w.e.e.w.5.1.U > X o.) w v.p.h.g.x.c._.W.P.L.%., X                 ",
"                              X N :.J.&.O.C X X o X . : f 1.7.<.<.<.<.I I z 6 o | F % q.e.i.g.k.d.G.J.J.L.K X                   ",
"                              X X 2 i 1 1 O $ O     X X X $ 6 : : : : : > : + X ^ F % q.w.w.t.t.N.J.J.L.} ; X                   ",
"                                o X X X X e z $         o X X X X X X X X X X X C L w 5.w.w.w.y.B.I.L.} ; X                     ",
"                                        o g 0 O         o X X X X       o X X o X Z K k w.w.w.s.G.K.o.; X                       ",
"                                        X O O X           X o o o       O X X X X + B w k w.w.m.K.+., X                         ",
"                                                          X X X X     X X X o     X + - = k w.M.+.< X                           ",
"                                                          O o X X o   o X X o X     X O H w k R 1 X                             ",
"                                                        X X X X X X   X X O o X X     X i V O % .                               ",
"                                                                                        X + X X                                 ",
"                                                                                          X X                                   ",
"                                                                                                                                ",
"                                                                                                                                ",
"                                                                                                                                ",
"                                                                                                                                "
};
