/* XPM */
static char *wall1717544144[] = {
/* columns rows colors chars-per-pixel */
"64 64 173 2 ",
"   c None",
".  c #161E30",
"X  c #191F30",
"o  c #172132",
"O  c #192434",
"+  c #182837",
"@  c #1A2639",
"#  c #1A2C3B",
"$  c #1E3037",
"%  c #1A323D",
"&  c #1D3C3E",
"*  c #2C2D3B",
"=  c #2D2A36",
"-  c #302C36",
";  c #21313D",
":  c #233B39",
">  c #373139",
",  c #3B333B",
"<  c #41373C",
"1  c #463A3E",
"2  c #4C3E3F",
"3  c #29483B",
"4  c #324D3D",
"5  c #37533D",
"6  c #1E2E41",
"7  c #1C3442",
"8  c #1D3B45",
"9  c #1D3D49",
"0  c #203246",
"q  c #22354A",
"w  c #223A4C",
"e  c #2D3845",
"r  c #3C3F43",
"t  c #253D51",
"y  c #473C40",
"u  c #4A3E41",
"i  c #1E4443",
"p  c #1E444C",
"a  c #1F494E",
"s  c #1F4A51",
"d  c #204047",
"f  c #22444C",
"g  c #254C47",
"h  c #245045",
"j  c #22544A",
"k  c #29574D",
"l  c #26594A",
"z  c #2B5D4F",
"x  c #244253",
"c  c #214D53",
"v  c #274458",
"b  c #29465B",
"n  c #264B5B",
"m  c #2A4A5E",
"M  c #215255",
"N  c #23555B",
"B  c #28525C",
"V  c #235C5D",
"C  c #245F53",
"Z  c #28634D",
"A  c #3C6F45",
"S  c #3B7147",
"D  c #39764F",
"F  c #34714C",
"G  c #256453",
"H  c #276C56",
"J  c #2A6A57",
"K  c #25655C",
"L  c #266A5F",
"P  c #326C50",
"I  c #297157",
"U  c #28745B",
"Y  c #2A7C5E",
"T  c #337953",
"R  c #2A4D60",
"E  c #275661",
"W  c #295462",
"Q  c #255D62",
"!  c #295C65",
"~  c #295F68",
"^  c #256364",
"/  c #2B6262",
"(  c #266C63",
")  c #2B6B65",
"_  c #276569",
"`  c #286369",
"'  c #276C6C",
"]  c #286C6C",
"[  c #277266",
"{  c #297464",
"}  c #2C7B65",
"|  c #27716E",
" . c #28756C",
".. c #2A7C6C",
"X. c #337F61",
"o. c #534242",
"O. c #584643",
"+. c #5D4945",
"@. c #624C47",
"#. c #695246",
"$. c #6C5349",
"%. c #7B5D4C",
"&. c #73574A",
"*. c #4B6C44",
"=. c #586C45",
"-. c #556242",
";. c #47744B",
":. c #637347",
">. c #82614E",
",. c #398657",
"<. c #34895D",
"1. c #3B8E5B",
"2. c #2C8364",
"3. c #2D8966",
"4. c #2C836C",
"5. c #2D8B6B",
"6. c #318366",
"7. c #348B66",
"8. c #3A8E67",
"9. c #318C69",
"0. c #2F936A",
"q. c #369565",
"w. c #3B9366",
"e. c #369B67",
"r. c #3A9D65",
"t. c #319569",
"y. c #339969",
"u. c #3DA164",
"i. c #4A934F",
"p. c #4C9A54",
"a. c #449E5C",
"s. c #48975B",
"d. c #60824B",
"f. c #6F864C",
"g. c #739851",
"h. c #47A15C",
"j. c #4BA35B",
"k. c #4CAB5E",
"l. c #50A758",
"z. c #52AD5C",
"x. c #54B25B",
"c. c #5AB55A",
"v. c #7FA555",
"b. c #76A655",
"n. c #61B65D",
"m. c #62BA5B",
"M. c #6ABB5B",
"N. c #74BF5B",
"B. c #419564",
"V. c #469C61",
"C. c #43A462",
"Z. c #49A760",
"A. c #47A860",
"S. c #49A960",
"D. c #76C05C",
"F. c #7BC15C",
"G. c #839550",
"H. c #899D53",
"J. c #8FA354",
"K. c #8DB95A",
"L. c #A1BA5B",
"P. c #83C35D",
"I. c #8BC65E",
"U. c #9FC25D",
"Y. c #96CA5F",
"T. c #99CA5F",
"R. c #9FCF60",
"E. c #A1CE60",
"W. c #B1CA60",
"Q. c #AED462",
"!. c #B3D462",
"~. c #BAD763",
"^. c #C1DD65",
/* pixels */
"                                                                                                                                ",
"                                                                                                                                ",
"                                                                                                                                ",
"                                                                O                                                               ",
"                                                                -.                                                              ",
"                                                              :.H.:.                                                            ",
"                                                              G.W.f.                                                            ",
"                                                              J.~.J.5                                                           ",
"                                                            =.L.^.U.*.                                                          ",
"                                                            g.!.~.Q.d.                                                          ",
"                                                          *.K.Q.R.R.v.5                                                         ",
"                                                          d.T.Y.I.D.P.;.                                                        ",
"                                                        5 b.P.N.P.M.m.p.h                                                       ",
"                                                        A c.c.M.F.x.k.z.T                                                       ",
"                                                      3 i.c.x.n.D.n.a.j.j.Z                                                     ",
"                                                      F x.k.k.n.M.m.h.T 1.7.l                                                   ",
"                                                    Z u.p.,.l.c.c.x.x.1.l I 2.j                                                 ",
"                                                i H q.,.l D z.V.k.k.k.k.J & i &                                                 ",
"                                                O i h & g s.8.q.u.u.e.u.9.M                                                     ",
"                                                    . 9 Y w.4.r.C.y.0.e.y.( %                                                   ",
"                                                    % L t.5.5.y.u.e.t.0.0.3.s                                                   ",
"                                                  + N 5.e.e.0.0.e.y.0.0.0.0.( #                                                 ",
"                                                  M ..r.A.e.0.e.e.t.0.4.y.r.3.a #                                               ",
"                                              % M } r.k.C.y.y.A.A.r.k.8.q.k.e.} c s 9                                           ",
"                                          + p V [ w.z.j.<.q.A.k.x.x.c.j.w.Z.C.B.G a p                                           ",
"                                          O 9 c z p.p.P } r.x.c.x.x.z.c.Z.C.k.C.<.i                                             ",
"                                            . : S S k { t.A.c.k.x.k.r.z.x.u.C.r.t.K                                             ",
"                                                $ f ( 5.C.k.Z.e.C.x.w.8.k.k.y.0.0.4.M                                           ",
"                                                a } 0.u.A.r.q.r.y.A.C.5.t.C.e.2.3.5.} s                                         ",
"                                              a [ 0.t.u.e.q.k.x.C.y.A.u.t.t.0.2.G L ..[ N 7                                     ",
"                                            a { 5.5.0.5.t.z.c.x.u.t.y.u.y.0.3.5.U 8 a M 9 #                                     ",
"                                        8 M ' | ' 2.5.4.V.c.c.S.u.u.t.t.5.0.Y K [ s + o                                         ",
"                                      % s Q N a V ..4.B.x.c.k.u.u.y.0.0.5.4.5.L j V C &                                         ",
"                                        + O # M ..4.w.x.k.C.u.y.u.y.0.0.4.| 4.0.2.c w $                                         ",
"                                          o s ..0.w.S.S.C.u.0.y.0.0.y.0.5.4.4.5.5./ w @                                         ",
"                                          M [ 5.0.r.y.y.u.0.y.0.0.y.u.0.0.0.5.4.0.} W p 7                                       ",
"                                    # a Q  .5.5.4.5.0.5.4.0.0.0.5.5.u.u.y.u.u.0.0.Y U ' Q 8                                     ",
"                                    o 7 a N (  .5.y.y.4.5.y.y.0.4...u.A.u.u.u.y.0.Y M K ' ^ 9                                   ",
"                                        o 8 Q 4.e.C.y.0.y.r.e.y.4.4.u.x.x.x.x.u.3.2.K 8 9 s 7                                   ",
"                                      # w B ..e.u.u.0.e.A.C.C.y.5.4.y.x.S.x.x.A.2.G { ( s #                                     ",
"                                  7 w x / 2.0.q.8.0.y.C.S.C.r.y.5.5.0.u.C.r.C.x.t.` v g 8                                       ",
"                                7 N '  .4.4.{ ^  .t.C.S.e.e.9.2.0.0.0.u.e.4.e.S.e. .m 0                                         ",
"                                  7 M V N c x n } r.S.e.0.0.} ) 0.y.0.0.0...4.y.y.4.W t @                                       ",
"                                  o @ @ # w b / q.C.w.X.} 5.` ] 0.u.3.4.0.4. .4.5.t.) b 7                                       ",
"                              o ; q q q v m ! 6.r.8./ ) 5.4.| | 4.u.6.! } 4.| |  ...| W t 7                                     ",
"                                6 0 q b R / { ) ! R / } 4.4. .| ..0.0.' ` .. .] ' _ _ ~ R m s %                                 ",
"                                # t W ` ! B m m R R ` | 5.4.| | 4.4.0.4. .| | ] ` ^ c ! ~ W _ ^ M 8                             ",
"                            # a Q ' ' ] ! m m m ! _ | ....| ' | ..4...4. .| | | _ ' M t N ^ Q s p %                             ",
"                              9 N Q Q m x w R ~ ' ' | | | _ _ | | | | | | ' ` | |  . .s # # + o                                 ",
"                                + # # @ # x R R R W ! ~ ` ` ` ' | | | ' | | ~ Q  .4.5.4.K i # o                                 ",
"                                      # M ~ W R R R v W _ ~ ~ ~ | ~ ! ~ | | ' s ( ..5.5.4. .N #                                 ",
"                                  8 N ^ ' ! W W W x q ~ | _ R ~ _ R R W _ ' | ^ s ^  . .( M 8                                   ",
"                                  # 8 N ^ ^ ~ V 9 @ 9 R W R x ~ E t R v b ! ' ' N 9 9 9 % O                                     ",
"                                      # # # # # . 7 b R t 9 w R t w E R 6 t R Q ` ^ N p #                                       ",
"                                            . % 9 Q _ E t 6 R n e * B _ n 9 8 7 x ! V p                                         ",
"                                              9 n _ ^ p 6 s ' s * , e Q ' ` Q 7 O # #                                           ",
"                                                # 7 # X + d x r o.+.o.% p a 7                                                   ",
"                                                      X - 1 y &.>.%.O.* X .                                                     ",
"                                                      , 2 &.O.$.$.%.+.o.,                                                       ",
"                                                      2 @.#.1 +.+.@.O., >                                                       ",
"                                                        @.o.1 , +.O.1                                                           ",
"                                                                                                                                ",
"                                                                                                                                ",
"                                                                                                                                "
};
